<svg width="37" height="37" viewBox="0 0 37 37" fill="none" xmlns="http://www.w3.org/2000/svg">
<path d="M23.1246 3.08203C17.9181 3.08422 13.456 6.80457 12.5176 11.9258C16.9991 9.47343 22.6201 11.1184 25.0725 15.5999C26.5865 18.3666 26.5865 21.714 25.0725 24.4808C30.9328 23.4072 34.8133 17.7862 33.7398 11.9259C32.8011 6.80147 28.3343 3.08006 23.1246 3.08203Z" fill="#007BFF" fill-opacity="0.1"/>
<path d="M10.7913 33.9167C15.0485 33.9167 18.4997 30.4655 18.4997 26.2083C18.4997 21.9511 15.0485 18.5 10.7913 18.5C6.53415 18.5 3.08301 21.9511 3.08301 26.2083C3.08301 30.4655 6.53415 33.9167 10.7913 33.9167Z" fill="#007BFF"/>
<path d="M16.9586 10.793C12.2051 10.7934 8.22569 14.3968 7.75488 19.1269C11.6642 17.4473 16.195 19.2549 17.8747 23.1642C18.7089 25.1059 18.7089 27.305 17.8747 29.2467C22.958 28.7413 26.6691 24.2107 26.1636 19.1273C25.6932 14.3964 21.7129 10.7925 16.9586 10.793Z" fill="#007BFF" fill-opacity="0.4"/>
</svg>
